<svg width="228" height="307" fill="none" xmlns="http://www.w3.org/2000/svg"><path d="M217.726 285.266a43.229 43.229 0 01-3.5 3.547c-11.576 10.822-31.137 20.657-44.597 17.603-5.788-1.302-9.961-4.939-12.159-10.463-4.173-10.553-2.468-19.174 5.204-26.315 4.173-3.906 9.691-7.005 14.986-10.013 1.301-.764 2.602-1.482 3.903-2.246 1.256-.718 2.513-1.482 3.814-2.2 6.595-3.772 13.415-7.724 17.363-11.406 4.666-4.356 3.141-6.107 2.243-7.14-.762-.853-4.755-3.323-24.945 1.167-13.057 2.919-28.087 7.634-39.079 11.137-1.795.584-3.5 1.078-5.025 1.572-17.005 5.299-40.515 9.879-56.173 1.616-6.82-3.592-11.441-9.295-13.774-16.884-2.737-8.847-.943-16.256 5.204-22.004 10.813-10.104 33.201-12.663 48.052-14.325 1.436-.18 2.827-.314 4.128-.494 1.526-.179 3.096-.359 4.711-.539 14.671-1.706 34.772-4.086 39.976-8.936 1.032-.943.853-1.482.718-1.841-.179-.494-2.243-5.074-25.933-9.161-12.832-2.2-29.612-3.817-44.866-4.311-35.176-1.167-57.968-4.401-71.742-10.238-6.775-2.874-19.293-12.125-23.959-24.743-2.692-7.23-2.378-14.28.942-20.926 2.02-4.132 4.532-7.589 7.493-10.329 10.185-9.475 25.619-10.597 44.597-3.188 7.269 2.829 14.223 6.466 20.908 9.969 6.192 3.233 12.025 6.287 17.633 8.442 9.377 3.593 20.414 6.961 29.567 9.026 11.396 2.515 15.613 2.111 16.915 1.797-.27-.943-1.526-3.054-6.282-6.961-4.935-3.996-12.114-8.756-20.414-14.235-14.043-9.295-31.496-20.836-46.975-34.802C45.797 58.627 35.118 42.64 34.894 29.887c-.09-6.017 2.064-11.226 6.506-15.492.134-.09.224-.225.359-.315 11.71-10.912 31.137-9.026 53.301 5.164 20.594 13.203 37.598 33.5 42.309 39.383 1.481 1.886 3.006 3.772 4.532 5.703 7.762 9.744 15.748 19.803 22.568 26.988 9.96 10.463 12.787 9.745 13.101 9.655.404-.18.808-.404 1.166-.764 5.654-5.254 5.07-27.168 1.257-45.31-3.365-15.94-2.961-36.732 8.255-47.195 3.545-3.323 7.986-5.434 13.191-6.287C212.386-.379 221.315 2.674 228 10.398v262.878c-.314.359-.628.763-.942 1.122-3.32 3.952-6.461 7.634-9.332 10.868z" fill="#F5C2CB"/></svg>