<svg width="50" height="36" fill="none" xmlns="http://www.w3.org/2000/svg"><path d="M25 0C11.245 0 0 11.2 0 24.9V36h50V24.9C50 11.2 38.805 0 25 0zM.954 35.05V24.9C.954 11.7 11.747.95 25 .95S49.046 11.7 49.046 24.9V35H.954v.05z" fill="#2D3185"/><path d="M41.466 26.1h-12.65l12.349-3.3c.25-.05.401-.35.351-.6-.05-.25-.351-.4-.602-.35l-12.3 3.35 11.145-6.4c.251-.15.301-.4.15-.65-.15-.25-.401-.3-.652-.15l-11.195 6.4 9.187-9.15c.1-.1.15-.2.15-.35 0-.15-.05-.25-.15-.35-.1-.1-.2-.15-.351-.15a.458.458 0 00-.352.15l-9.086 9.1 6.526-11.25c.15-.25.05-.5-.15-.65-.101-.05-.252-.1-.352-.05-.1.05-.2.1-.301.2l-6.627 11.45 3.464-12.8c.05-.25-.1-.5-.351-.6a.546.546 0 00-.603.35l-3.363 12.5v-13c0-.25-.201-.45-.452-.45s-.452.2-.452.45v13l-3.413-12.6c-.05-.1-.1-.25-.201-.3-.1-.05-.251-.1-.352-.05-.25.05-.401.35-.351.6l3.464 12.9-6.777-11.6c-.15-.25-.402-.3-.653-.15-.1.05-.2.15-.2.3-.05.1 0 .25.05.35l6.626 11.45-9.337-9.35a.457.457 0 00-.352-.15c-.15 0-.25.05-.351.15-.1.1-.15.2-.15.35 0 .15.05.25.15.35l9.387 9.35-11.445-6.6c-.1-.05-.251-.1-.352-.05-.1.05-.2.1-.301.2-.15.25-.05.5.15.65l11.446 6.6-12.7-3.4c-.1-.05-.251 0-.352.05-.1.05-.2.15-.2.3-.05.1 0 .25.05.35.05.1.15.2.3.2l12.651 3.4H8.534a.449.449 0 100 .9h32.932c.25 0 .452-.2.452-.45s-.15-.45-.452-.45z" fill="#2D3185"/></svg>